<?xml version="1.0" encoding="UTF-8" standalone="no"?>
<!-- Created with Inkscape (http://www.inkscape.org/) -->

<svg
   width="64"
   height="64"
   id="svg2869"
   version="1.1"
   viewBox="0 0 64 64"
   xml:space="preserve"
   sodipodi:docname="ResetType.svg"
   inkscape:version="1.2.2 (b0a8486541, 2022-12-01)"
   xmlns:inkscape="http://www.inkscape.org/namespaces/inkscape"
   xmlns:sodipodi="http://sodipodi.sourceforge.net/DTD/sodipodi-0.dtd"
   xmlns:xlink="http://www.w3.org/1999/xlink"
   xmlns="http://www.w3.org/2000/svg"
   xmlns:svg="http://www.w3.org/2000/svg"
   xmlns:rdf="http://www.w3.org/1999/02/22-rdf-syntax-ns#"
   xmlns:cc="http://creativecommons.org/ns#"
   xmlns:dc="http://purl.org/dc/elements/1.1/"><sodipodi:namedview
     id="namedview20231"
     pagecolor="#ffffff"
     bordercolor="#000000"
     borderopacity="0.25"
     inkscape:showpageshadow="2"
     inkscape:pageopacity="0.0"
     inkscape:pagecheckerboard="0"
     inkscape:deskcolor="#d1d1d1"
     showgrid="false"
     inkscape:zoom="8.8940775"
     inkscape:cx="24.004738"
     inkscape:cy="19.507363"
     inkscape:window-width="1854"
     inkscape:window-height="1011"
     inkscape:window-x="0"
     inkscape:window-y="0"
     inkscape:window-maximized="1"
     inkscape:current-layer="g3" /><defs
     id="defs2871"><linearGradient
       id="linearGradient4"><stop
         style="stop-color:#a40000;stop-opacity:1;"
         offset="0"
         id="stop4" /><stop
         style="stop-color:#cc0000;stop-opacity:1;"
         offset="1"
         id="stop7" /></linearGradient><linearGradient
       id="linearGradient5"><stop
         style="stop-color:#ef2929;stop-opacity:1;"
         offset="0"
         id="stop19" /><stop
         style="stop-color:#ef2929;stop-opacity:0;"
         offset="1"
         id="stop20" /></linearGradient><linearGradient
       id="swatch18"><stop
         style="stop-color:#ef2929;stop-opacity:1;"
         offset="0"
         id="stop18" /></linearGradient><linearGradient
       id="swatch15"><stop
         style="stop-color:#3d0000;stop-opacity:1;"
         offset="0"
         id="stop15" /></linearGradient><linearGradient
       id="linearGradient5-1"><stop
         style="stop-color:#ef2929;stop-opacity:1;"
         offset="0"
         id="stop5" /><stop
         style="stop-color:#ef2929;stop-opacity:0;"
         offset="1"
         id="stop6" /></linearGradient><linearGradient
       id="linearGradient3836-9"><stop
         style="stop-color:#a40000;stop-opacity:1"
         offset="0"
         id="stop3838-8" /><stop
         style="stop-color:#ef2929;stop-opacity:1"
         offset="1"
         id="stop3840-1" /></linearGradient><linearGradient
       xlink:href="#linearGradient4"
       id="linearGradient7"
       x1="10.802491"
       y1="49.560848"
       x2="44.045834"
       y2="16.298645"
       gradientUnits="userSpaceOnUse" /><linearGradient
       xlink:href="#linearGradient1"
       id="linearGradient4-5"
       x1="6.0000095"
       y1="25.999998"
       x2="40.000019"
       y2="58"
       gradientUnits="userSpaceOnUse"
       gradientTransform="matrix(0.94117647,0,0,1,0.3529423,0)" /><linearGradient
       id="linearGradient1"><stop
         style="stop-color:#729fcf;stop-opacity:1;"
         offset="0"
         id="stop1" /><stop
         style="stop-color:#204a87;stop-opacity:1;"
         offset="1"
         id="stop2" /></linearGradient><linearGradient
       xlink:href="#linearGradient891"
       id="linearGradient2"
       x1="27.363754"
       y1="10.970365"
       x2="52.938862"
       y2="36.727921"
       gradientUnits="userSpaceOnUse"
       gradientTransform="matrix(0.82592132,0,0,0.82592132,1.5928748,0.0273509)" /><linearGradient
       id="linearGradient891"><stop
         style="stop-color:#729fcf;stop-opacity:1;"
         offset="0"
         id="stop887" /><stop
         style="stop-color:#204a87;stop-opacity:1;"
         offset="1"
         id="stop889" /></linearGradient><linearGradient
       xlink:href="#linearGradient1"
       id="linearGradient74"
       x1="4"
       y1="4"
       x2="60"
       y2="60"
       gradientUnits="userSpaceOnUse" /><linearGradient
       xlink:href="#linearGradient1"
       id="linearGradient74-1"
       x1="4"
       y1="4"
       x2="60"
       y2="60"
       gradientUnits="userSpaceOnUse" /></defs><metadata
     id="metadata2874"><rdf:RDF><cc:Work
         rdf:about=""><dc:format>image/svg+xml</dc:format><dc:type
           rdf:resource="http://purl.org/dc/dcmitype/StillImage" /><dc:creator><cc:Agent><dc:title>[maxwxyz]</dc:title></cc:Agent></dc:creator><dc:relation>https://www.freecad.org/wiki/index.php?title=Artwork</dc:relation><dc:publisher><cc:Agent><dc:title>FreeCAD</dc:title></cc:Agent></dc:publisher><dc:identifier>FreeCAD/src/</dc:identifier><dc:rights><cc:Agent><dc:title>FreeCAD LGPL2+</dc:title></cc:Agent></dc:rights><dc:date>2024</dc:date></cc:Work></rdf:RDF></metadata><g
     id="layer3-2"
     style="display:inline"
     transform="translate(-9.6468941e-5)"><path
       id="path1-7"
       style="fill:#729fcf;fill-rule:evenodd;stroke:#0b1523;stroke-width:2;stroke-linecap:round;stroke-linejoin:round;stroke-dasharray:none;stroke-opacity:1"
       d="m 29.740234,4 a 1.5046519,1.5076923 0 0 0 -1.429687,1.0429688 l -1.556641,4.796875 a 1.5046519,1.5076923 0 0 1 -0.96289,0.9707032 l -1.199219,0.386719 A 1.5046519,1.5076923 0 0 1 23.246094,10.982422 L 19.169922,8.0175781 a 1.5046519,1.5076923 0 0 0 -1.767578,0 l -3.654297,2.6582029 a 1.5046519,1.5076923 0 0 0 -0.546875,1.6875 l 1.55664,4.798828 a 1.5046519,1.5076923 0 0 1 -0.210937,1.351563 l -0.740234,1.021484 a 1.5046519,1.5076923 0 0 1 -1.220703,0.619141 H 7.5507812 a 1.5046519,1.5076923 0 0 0 -1.4296874,1.042969 l -1.3925782,4.298828 a 1.5046519,1.5076923 0 0 0 0,0.933594 1.5046519,1.5076923 0 0 0 0.546875,0.753906 l 4.0722656,2.964844 a 1.5046519,1.5076923 0 0 1 0.6171876,1.220703 v 1.261718 a 1.5046519,1.5076923 0 0 1 -0.6171876,1.220703 l -4.0722656,2.964844 a 1.5046519,1.5076923 0 0 0 -0.546875,1.6875 l 1.3925782,4.298828 a 1.5046519,1.5076923 0 0 0 1.4296874,1.042969 h 5.0351568 a 1.5046519,1.5076923 0 0 1 1.220703,0.619141 l 0.740234,1.021484 a 1.5046519,1.5076923 0 0 1 0.210937,1.351563 l -1.55664,4.798828 a 1.5046519,1.5076923 0 0 0 0.546875,1.6875 l 3.654297,2.658203 a 1.5046519,1.5076923 0 0 0 1.767578,0 l 4.076172,-2.964844 a 1.5046519,1.5076923 0 0 1 1.345703,-0.214844 l 1.199219,0.386719 a 1.5046519,1.5076923 0 0 1 0.96289,0.970703 l 1.556641,4.796875 A 1.5046519,1.5076923 0 0 0 29.740234,60 h 4.519532 a 1.5046519,1.5076923 0 0 0 1.429687,-1.042969 l 1.556641,-4.796875 a 1.5046519,1.5076923 0 0 1 0.96289,-0.970703 l 1.199219,-0.386719 a 1.5046519,1.5076923 0 0 1 1.345703,0.214844 l 4.076172,2.964844 a 1.5046519,1.5076923 0 0 0 1.767578,0 l 3.654297,-2.658203 a 1.5046519,1.5076923 0 0 0 0.546875,-1.6875 l -1.55664,-4.798828 a 1.5046519,1.5076923 0 0 1 0.210937,-1.351563 l 0.740234,-1.021484 a 1.5046519,1.5076923 0 0 1 1.220703,-0.619141 h 5.035157 a 1.5046519,1.5076923 0 0 0 1.429687,-1.042969 l 1.392578,-4.298828 a 1.5046519,1.5076923 0 0 0 -0.542968,-1.6875 l -4.076172,-2.964844 a 1.5046519,1.5076923 0 0 1 -0.617188,-1.220703 v -1.261718 a 1.5046519,1.5076923 0 0 1 0.617188,-1.220703 l 4.072265,-2.964844 a 1.5046519,1.5076923 0 0 0 0.546875,-1.6875 l -1.392578,-4.298828 a 1.5046519,1.5076923 0 0 0 -1.429687,-1.042969 h -5.035157 a 1.5046519,1.5076923 0 0 1 -1.220703,-0.619141 l -0.740234,-1.021484 a 1.5046519,1.5076923 0 0 1 -0.210937,-1.351563 l 1.55664,-4.798828 a 1.5046519,1.5076923 0 0 0 -0.546875,-1.6875 L 46.597656,8.0175781 a 1.5046519,1.5076923 0 0 0 -1.767578,0 l -4.076172,2.9648439 a 1.5046519,1.5076923 0 0 1 -1.345703,0.214844 L 38.208984,10.810547 A 1.5046519,1.5076923 0 0 1 37.246094,9.8398438 L 35.689453,5.0429688 A 1.5046519,1.5076923 0 0 0 34.259766,4 Z M 32,25 a 7,7 0 0 1 7,7 7,7 0 0 1 -7,7 7,7 0 0 1 -7,-7 7,7 0 0 1 7,-7 z" /><path
       id="path72"
       style="fill:url(#linearGradient74-1);fill-rule:evenodd;stroke:#729fcf;stroke-width:2;stroke-linecap:round;stroke-linejoin:round;stroke-dasharray:none;stroke-opacity:1"
       d="m 30.101562,6 h 3.794922 l 1.445313,4.451172 c 0.342976,1.068284 1.17518,1.908647 2.242187,2.259766 l 0.0059,0.002 1.203125,0.386718 c 1.066097,0.34446 2.231085,0.158771 3.136718,-0.5 l 3.783204,-2.7519527 3.074218,2.2343747 -1.447265,4.460938 c -0.347595,1.06617 -0.164654,2.231523 0.49414,3.144531 l 0.742188,1.025391 c 0.661841,0.909106 1.719153,1.445229 2.83789,1.441406 h 4.671875 l 1.173829,3.621094 -3.789063,2.759765 c -0.905982,0.663048 -1.437903,1.716557 -1.435547,2.833985 V 32.627 c -0.0024,1.121637 0.530685,2.175291 1.441406,2.841797 l 3.783204,2.753906 -1.171875,3.623047 h -4.667969 c -1.125553,-0.0038 -2.181286,0.53266 -2.845703,1.445313 l -0.742188,1.02539 c -0.656404,0.909703 -0.838863,2.075328 -0.492187,3.138672 l 1.447265,4.462891 -3.074218,2.234375 -3.783204,-2.751953 c -0.905691,-0.658813 -2.06975,-0.846064 -3.134765,-0.501954 l -1.205078,0.388672 -0.0059,0.002 c -1.067007,0.351119 -1.899182,1.191584 -2.240234,2.253907 L 33.898437,58 h -3.794921 l -1.445313,-4.451172 c -0.342976,-1.068284 -1.17518,-1.908647 -2.242187,-2.259766 l -0.0059,-0.002 -1.203125,-0.386718 c -1.066097,-0.34446 -2.231085,-0.158771 -3.136719,0.5 l -3.783203,2.751953 -3.074218,-2.234375 1.447265,-4.460938 c 0.347595,-1.06617 0.164654,-2.231523 -0.49414,-3.144531 L 15.423828,43.287109 C 14.761987,42.378003 13.704675,41.84188 12.585938,41.845703 H 7.9140625 L 6.7402344,38.224609 10.529297,35.464844 c 0.905981,-0.663048 1.437903,-1.716557 1.435547,-2.833985 v -1.257812 c 0.0024,-1.121638 -0.52947,-2.175828 -1.439453,-2.841797 l -3.7851566,-2.753906 1.171875,-3.623047 h 4.6679686 c 1.125553,0.0038 2.181286,-0.53266 2.845703,-1.445313 l 0.742188,-1.02539 c 0.656404,-0.909703 0.838863,-2.075328 0.492187,-3.138672 l -1.447265,-4.462891 3.074218,-2.2343747 3.783203,2.7519527 c 0.905692,0.658813 2.069751,0.846064 3.134766,0.501954 l 1.205078,-0.388672 0.0059,-0.002 c 1.067007,-0.351119 1.899182,-1.191584 2.240234,-2.253907 z M 32,23 c -4.98064,0 -9,4.01936 -9,9 0,4.98064 4.01936,9 9,9 4.98064,0 9,-4.01936 9,-9 0,-4.98064 -4.01936,-9 -9,-9 z" /></g><g
     id="layer3"
     style="display:inline"
     transform="matrix(0.67574659,0,0,0.67574659,21.233606,20.509725)"><g
       id="g3"><g
         id="g30769"
         transform="translate(0,2.9596894)"><path
           style="color:#000000;display:block;overflow:visible;visibility:visible;fill:#ef2929;fill-opacity:1;fill-rule:nonzero;stroke:#221e0c;stroke-width:2.00001;stroke-linecap:round;stroke-linejoin:round;stroke-miterlimit:4;stroke-dasharray:none;stroke-dashoffset:0;stroke-opacity:1;marker:none;marker-start:none;marker-mid:none;marker-end:none"
           d="M 28.811054,2.9998852 4.331002,24.363222 28.811054,46.769639 v -14.5239 l 2.594648,-0.108269 c 14.787528,-0.613737 24.886008,10.730282 22.432341,22.916074 -0.409194,2.032201 -1.170168,4.02883 -2.277583,5.946877 4.991053,-4.644764 7.468561,-10.141504 7.997963,-15.498322 1.366583,-13.827951 -10.043816,-28.399385 -28.015327,-28.2239 l -2.732042,0.02641 z"
           id="path1" /><path
           style="color:#000000;display:block;overflow:visible;visibility:visible;fill:url(#linearGradient7);fill-rule:nonzero;stroke:#ef2929;stroke-width:1.47883;stroke-linecap:round;stroke-linejoin:round;stroke-miterlimit:4;stroke-dasharray:none;stroke-dashoffset:0;stroke-opacity:1;marker:none;marker-start:none;marker-mid:none;marker-end:none"
           d="m 35.335937,10.65625 14.400391,12.574219 -14.400391,13.1875 V 27.615234 L 32,27.474609 C 21.515464,27.039216 13.798628,34.189897 13.613281,42.847656 13.066901,41.466422 12.735455,40.068714 12.599609,38.693359 11.681352,29.396575 19.370531,19.319731 31.824219,19.441406 l 3.511718,0.03516 z"
           id="path3"
           transform="matrix(-1.3528102,0,0,1.3520431,74.61372,-7.0084018)" /></g></g></g></svg>
